[img]http://1.bp.blogspot.com/_gHONeKH0ONQ/SOb0RhAugQI/AAAAAAAAABE/SxYqO8_Js1I/s400/RAAT.jpg[/img]

[code]General
Format                           : AVI
Format/Info                      : Audio Video Interleave
File size                        : 1.21 GiB
Duration                         : 2h 7mn
Overall bit rate                 : 1 352 Kbps

Video
ID                               : 0
Format                           : MPEG-4 Visual
Format profile                   : Advanced Simple@L5
Format settings, BVOP            : 2
Format settings, QPel            : No
Format settings, GMC             : No warppoints
Format settings, Matrix          : Default (H.263)
Codec ID                         : XVID
Codec ID/Hint                    : XviD
Duration                         : 2h 7mn
Bit rate                         : 960 Kbps
Width                            : 640 pixels
Height                           : 304 pixels
Display aspect ratio             : 2.2:1
Frame rate                       : 29.970 fps
Color space                      : YUV
Chroma subsampling               : 4:2:0
Bit depth                        : 8 bits
Scan type                        : Progressive
Compression mode                 : Lossy
Bits/(Pixel*Frame)               : 0.165
Stream size                      : 878 MiB (71%)
Writing library                  : XviD 1.2.1 (UTC 2008-12-04)

Audio
ID                               : 1
Format                           : AC-3
Format/Info                      : Audio Coding 3
Mode extension                   : CM (complete main)
Codec ID                         : 2000
Duration                         : 2h 7mn
Bit rate mode                    : Constant
Bit rate                         : 384 Kbps
Channel(s)                       : 6 channels
Channel positions                : Front: L C R, Side: L R, LFE
Sampling rate                    : 48.0 KHz
Bit depth                        : 16 bits
Compression mode                 : Lossy
Stream size                      : 351 MiB (28%)
Alignment                        : Aligned on interleaves
Interleave, duration             : 64 ms (1.92 video frames)
Interleave, preload duration     : 192 ms
Title                            : Striker[WBZ]  [/code]

[img]http://pic.phyrefile.com/s/sh/shahaz/2011/04/12/1_008.jpg[/img]
[img]http://pic.phyrefile.com/s/sh/shahaz/2011/04/12/2_008.jpg[/img]
[img]http://pic.phyrefile.com/s/sh/shahaz/2011/04/12/3_007.jpg[/img]
[img]http://pic.phyrefile.com/s/sh/shahaz/2011/04/12/4_007.jpg[/img]
[img]http://pic.phyrefile.com/s/sh/shahaz/2011/04/12/5_007.jpg[/img]
[img]http://pic.phyrefile.com/s/sh/shahaz/2011/04/12/6_007.jpg[/img]
[img]http://pic.phyrefile.com/s/sh/shahaz/2011/04/12/7_007.jpg[/img]
[img]http://pic.phyrefile.com/s/sh/shahaz/2011/04/12/8_007.jpg[/img]
[img]http://pic.phyrefile.com/s/sh/shahaz/2011/04/12/9_007.jpg[/img]
[img]http://pic.phyrefile.com/s/sh/shahaz/2011/04/12/10_007.jpg[/img]
